<svg width="32" height="32" viewBox="0 0 32 32" fill="none" xmlns="http://www.w3.org/2000/svg">
<circle cx="16" cy="16" r="16" fill="#F7F9FB"/>
<path d="M25.6116 6L17.2777 12.25L18.8275 8.56667L25.6116 6Z" fill="#E17726" stroke="#E17726" stroke-width="0.25" stroke-linecap="round" stroke-linejoin="round"/>
<path d="M6.38843 6L14.6481 12.3083L13.1726 8.56666L6.38843 6Z" fill="#E27625" stroke="#E27625" stroke-width="0.25" stroke-linecap="round" stroke-linejoin="round"/>
<path d="M22.611 20.4916L20.3936 23.9249L25.1416 25.2499L26.5018 20.5666L22.611 20.4916Z" fill="#E27625" stroke="#E27625" stroke-width="0.25" stroke-linecap="round" stroke-linejoin="round"/>
<path d="M5.50647 20.5666L6.85834 25.2499L11.5982 23.9249L9.389 20.4916L5.50647 20.5666Z" fill="#E27625" stroke="#E27625" stroke-width="0.25" stroke-linecap="round" stroke-linejoin="round"/>
<path d="M11.3426 14.6917L10.0237 16.7083L14.7223 16.925L14.5657 11.8L11.3426 14.6917Z" fill="#E27625" stroke="#E27625" stroke-width="0.25" stroke-linecap="round" stroke-linejoin="round"/>
<path d="M20.6572 14.6917L17.3848 11.7417L17.2776 16.9251L21.9762 16.7084L20.6572 14.6917Z" fill="#E27625" stroke="#E27625" stroke-width="0.25" stroke-linecap="round" stroke-linejoin="round"/>
<path d="M11.5981 23.9249L14.442 22.5333L11.9938 20.5999L11.5981 23.9249Z" fill="#E27625" stroke="#E27625" stroke-width="0.25" stroke-linecap="round" stroke-linejoin="round"/>
<path opacity="0.8" d="M17.558 22.5333L20.3936 23.9249L20.0062 20.5999L17.558 22.5333Z" fill="#E27625" stroke="#E27625" stroke-width="0.25" stroke-linecap="round" stroke-linejoin="round"/>
<path d="M20.3936 23.9251L17.558 22.5334L17.7888 24.4001L17.764 25.1917L20.3936 23.9251Z" fill="#D5BFB2" stroke="#D5BFB2" stroke-width="0.25" stroke-linecap="round" stroke-linejoin="round"/>
<path d="M11.5981 23.9251L14.236 25.1917L14.2195 24.4001L14.442 22.5334L11.5981 23.9251Z" fill="#D5BFB2" stroke="#D5BFB2" stroke-width="0.25" stroke-linecap="round" stroke-linejoin="round"/>
<path d="M14.2854 19.3666L11.9279 18.6667L13.593 17.8917L14.2854 19.3666Z" fill="#233447" stroke="#233447" stroke-width="0.25" stroke-linecap="round" stroke-linejoin="round"/>
<path d="M17.7146 19.3666L18.4071 17.8917L20.0804 18.6667L17.7146 19.3666Z" fill="#233447" stroke="#233447" stroke-width="0.25" stroke-linecap="round" stroke-linejoin="round"/>
<path d="M11.5982 23.9249L12.0104 20.4916L9.38904 20.5666L11.5982 23.9249Z" fill="#CC6228" stroke="#CC6228" stroke-width="0.25" stroke-linecap="round" stroke-linejoin="round"/>
<path d="M19.9896 20.4916L20.3936 23.9249L22.611 20.5666L19.9896 20.4916Z" fill="#CC6228" stroke="#CC6228" stroke-width="0.25" stroke-linecap="round" stroke-linejoin="round"/>
<path d="M21.9762 16.7083L17.2776 16.9249L17.7145 19.3666L18.4069 17.8916L20.0803 18.6666L21.9762 16.7083Z" fill="#CC6228" stroke="#CC6228" stroke-width="0.25" stroke-linecap="round" stroke-linejoin="round"/>
<path d="M11.9279 18.6666L13.593 17.8916L14.2854 19.3666L14.7223 16.9249L10.0237 16.7083L11.9279 18.6666Z" fill="#CC6228" stroke="#CC6228" stroke-width="0.25" stroke-linecap="round" stroke-linejoin="round"/>
<path d="M10.0238 16.7083L11.9939 20.5999L11.9279 18.6666L10.0238 16.7083Z" fill="#E27525" stroke="#E27525" stroke-width="0.25" stroke-linecap="round" stroke-linejoin="round"/>
<path d="M20.0804 18.6666L20.0062 20.5999L21.9764 16.7083L20.0804 18.6666Z" fill="#E27525" stroke="#E27525" stroke-width="0.25" stroke-linecap="round" stroke-linejoin="round"/>
<path d="M14.7226 16.9249L14.2856 19.3666L14.8379 22.2499L14.9616 18.4499L14.7226 16.9249Z" fill="#E27525" stroke="#E27525" stroke-width="0.25" stroke-linecap="round" stroke-linejoin="round"/>
<path d="M17.2777 16.9249L17.0469 18.4417L17.1623 22.2499L17.7146 19.3666L17.2777 16.9249Z" fill="#E27525" stroke="#E27525" stroke-width="0.25" stroke-linecap="round" stroke-linejoin="round"/>
<path d="M17.7146 19.3667L17.1624 22.25L17.558 22.5334L20.0063 20.6L20.0805 18.6667L17.7146 19.3667Z" fill="#F5841F" stroke="#F5841F" stroke-width="0.25" stroke-linecap="round" stroke-linejoin="round"/>
<path d="M11.9279 18.6667L11.9938 20.6L14.442 22.5334L14.8377 22.25L14.2854 19.3667L11.9279 18.6667Z" fill="#F5841F" stroke="#F5841F" stroke-width="0.25" stroke-linecap="round" stroke-linejoin="round"/>
<path d="M17.7641 25.1917L17.7887 24.4L17.5745 24.2166H14.4256L14.2195 24.4L14.236 25.1917L11.5981 23.925L12.5214 24.6916L14.3926 26H17.5991L19.4786 24.6916L20.3936 23.925L17.7641 25.1917Z" fill="#C0AC9D" stroke="#C0AC9D" stroke-width="0.25" stroke-linecap="round" stroke-linejoin="round"/>
<path d="M17.558 22.5333L17.1623 22.25H14.8377L14.4421 22.5333L14.2195 24.4L14.4256 24.2166H17.5745L17.7888 24.4L17.558 22.5333Z" fill="#161616" stroke="#161616" stroke-width="0.25" stroke-linecap="round" stroke-linejoin="round"/>
<path d="M25.966 12.6583L26.6667 9.20833L25.6115 6L17.558 12.0417L20.6574 14.6916L25.0345 15.9833L25.999 14.8417L25.5786 14.5333L26.2462 13.9167L25.7352 13.5167L26.4029 13L25.966 12.6583Z" fill="#763E1A" stroke="#763E1A" stroke-width="0.25" stroke-linecap="round" stroke-linejoin="round"/>
<path d="M5.33337 9.20833L6.04229 12.6583L5.58892 13L6.26485 13.5167L5.75378 13.9167L6.42147 14.5333L6.00107 14.8417L6.96552 15.9833L11.3427 14.6916L14.4421 12.0417L6.3885 6L5.33337 9.20833Z" fill="#763E1A" stroke="#763E1A" stroke-width="0.25" stroke-linecap="round" stroke-linejoin="round"/>
<path d="M25.0346 15.9833L20.6574 14.6917L21.9764 16.7083L20.0062 20.6L22.6111 20.5666H26.5018L25.0346 15.9833Z" fill="#F5841F" stroke="#F5841F" stroke-width="0.25" stroke-linecap="round" stroke-linejoin="round"/>
<path d="M11.3426 14.6917L6.96551 15.9833L5.50647 20.5666H9.389L11.9938 20.6L10.0237 16.7083L11.3426 14.6917Z" fill="#F5841F" stroke="#F5841F" stroke-width="0.25" stroke-linecap="round" stroke-linejoin="round"/>
<path d="M17.2777 16.925L17.558 12.0416L18.8274 8.56665H13.1726L14.442 12.0416L14.7223 16.925L14.8295 18.4583L14.8377 22.25H17.1623L17.1705 18.4583L17.2777 16.925Z" fill="#F5841F" stroke="#F5841F" stroke-width="0.25" stroke-linecap="round" stroke-linejoin="round"/>
</svg>
